<svg xmlns="http://www.w3.org/2000/svg" viewBox="0 0 1200 675">
  <defs>
    <linearGradient id="sky" x1="0" y1="0" x2="0" y2="1">
      <stop offset="0" stop-color="#cdeaf7"/>
      <stop offset="1" stop-color="#f8fbf9"/>
    </linearGradient>
    <linearGradient id="sea" x1="0" y1="0" x2="0" y2="1">
      <stop offset="0" stop-color="#22b0a6"/>
      <stop offset="1" stop-color="#0b4f4a"/>
    </linearGradient>
    <linearGradient id="mountain" x1="0" y1="0" x2="0" y2="1">
      <stop offset="0" stop-color="#4c8f68"/>
      <stop offset="1" stop-color="#1f4a34"/>
    </linearGradient>
    <linearGradient id="mountain2" x1="0" y1="0" x2="0" y2="1">
      <stop offset="0" stop-color="#3c7857"/>
      <stop offset="1" stop-color="#173d2a"/>
    </linearGradient>
    <radialGradient id="sun" cx="0.5" cy="0.5" r="0.5">
      <stop offset="0" stop-color="#ffd77a"/>
      <stop offset="1" stop-color="#f5b942"/>
    </radialGradient>
  </defs>
<rect width="1200" height="675" fill="url(#sky)"/><circle cx="1060" cy="110" r="70" fill="url(#sun)"/><path d="M0,470 C300,450 700,470 1200,450 L1200,675 L0,675 Z" fill="#f4e6c4"/>
<rect x="500" y="330" width="200" height="240" rx="40" fill="#0b4f4a"/>
<rect x="540" y="300" width="120" height="70" rx="24" fill="#14766f"/>
<rect x="530" y="400" width="140" height="90" rx="16" fill="#22b0a6"/>
<circle cx="600" cy="445" r="10" fill="#f4e6c4"/>
<path d="M520,360 C510,420 510,490 525,560" stroke="#073531" stroke-width="14" fill="none" stroke-linecap="round"/>
<path d="M680,360 C690,420 690,490 675,560" stroke="#073531" stroke-width="14" fill="none" stroke-linecap="round"/>
<ellipse cx="380" cy="470" rx="70" ry="18" fill="#c9812e"/><ellipse cx="380" cy="455" rx="40" ry="22" fill="#dba054"/><rect x="770" y="400" width="46" height="90" rx="10" fill="#f4f0e6"/><rect x="782" y="385" width="22" height="20" fill="#c9812e"/><circle cx="410" cy="330" r="26" fill="none" stroke="#173622" stroke-width="10"/><circle cx="470" cy="330" r="26" fill="none" stroke="#173622" stroke-width="10"/><line x1="436" y1="325" x2="444" y2="325" stroke="#173622" stroke-width="8"/><rect x="860" y="440" width="34" height="80" rx="10" fill="#22b0a6"/><rect x="868" y="425" width="18" height="18" fill="#0b4f4a"/></svg>