<svg xmlns="http://www.w3.org/2000/svg" viewBox="0 0 1200 675">
  <defs>
    <linearGradient id="sky" x1="0" y1="0" x2="0" y2="1">
      <stop offset="0" stop-color="#cdeaf7"/>
      <stop offset="1" stop-color="#f8fbf9"/>
    </linearGradient>
    <linearGradient id="sea" x1="0" y1="0" x2="0" y2="1">
      <stop offset="0" stop-color="#22b0a6"/>
      <stop offset="1" stop-color="#0b4f4a"/>
    </linearGradient>
    <linearGradient id="mountain" x1="0" y1="0" x2="0" y2="1">
      <stop offset="0" stop-color="#4c8f68"/>
      <stop offset="1" stop-color="#1f4a34"/>
    </linearGradient>
    <linearGradient id="mountain2" x1="0" y1="0" x2="0" y2="1">
      <stop offset="0" stop-color="#3c7857"/>
      <stop offset="1" stop-color="#173d2a"/>
    </linearGradient>
    <radialGradient id="sun" cx="0.5" cy="0.5" r="0.5">
      <stop offset="0" stop-color="#ffd77a"/>
      <stop offset="1" stop-color="#f5b942"/>
    </radialGradient>
  </defs>
<rect width="1200" height="675" fill="url(#sky)"/><circle cx="200" cy="120" r="75" fill="url(#sun)"/><path d="M0,430 C250,405 480,420 700,405 C900,392 1050,410 1200,400 L1200,470 L0,470 Z" fill="url(#mountain)"/><rect x="0" y="440" width="1200" height="235" fill="url(#sea)"/>
    <g transform="translate(430,470) scale(1.3,1.3)">
      <path d="M0,0 C-6,-70 -4,-150 6,-220" stroke="#173622" stroke-width="10" fill="none" stroke-linecap="round"/>
      <g fill="#1f4a34">
        <path d="M6,-220 C-40,-235 -85,-215 -110,-180 C-70,-190 -35,-195 4,-208 Z"/>
        <path d="M6,-220 C-30,-260 -75,-270 -115,-255 C-75,-250 -35,-240 2,-215 Z"/>
        <path d="M6,-220 C15,-265 5,-305 -25,-330 C-10,-295 0,-260 4,-218 Z"/>
        <path d="M6,-220 C50,-235 95,-215 118,-182 C80,-192 45,-197 6,-210 Z"/>
        <path d="M6,-220 C40,-258 82,-268 120,-252 C82,-248 44,-238 4,-215 Z"/>
        <path d="M6,-220 C-2,-262 10,-300 38,-322 C25,-288 15,-256 8,-218 Z"/>
      </g>
    </g>
    <g transform="translate(870,470) scale(-1.3,1.3)">
      <path d="M0,0 C-6,-70 -4,-150 6,-220" stroke="#173622" stroke-width="10" fill="none" stroke-linecap="round"/>
      <g fill="#1f4a34">
        <path d="M6,-220 C-40,-235 -85,-215 -110,-180 C-70,-190 -35,-195 4,-208 Z"/>
        <path d="M6,-220 C-30,-260 -75,-270 -115,-255 C-75,-250 -35,-240 2,-215 Z"/>
        <path d="M6,-220 C15,-265 5,-305 -25,-330 C-10,-295 0,-260 4,-218 Z"/>
        <path d="M6,-220 C50,-235 95,-215 118,-182 C80,-192 45,-197 6,-210 Z"/>
        <path d="M6,-220 C40,-258 82,-268 120,-252 C82,-248 44,-238 4,-215 Z"/>
        <path d="M6,-220 C-2,-262 10,-300 38,-322 C25,-288 15,-256 8,-218 Z"/>
      </g>
    </g><path d="M470,330 C600,400 700,400 830,335" stroke="#c9812e" stroke-width="10" fill="none" stroke-linecap="round"/><path d="M480,335 C600,395 700,395 820,340" stroke="#e8b56a" stroke-width="4" fill="none" stroke-linecap="round"/>
<polygon points="560,300 640,300 680,350 520,350" fill="#c9812e"/>
<rect x="540" y="350" width="120" height="70" fill="#8b5a2b"/>
<rect x="580" y="380" width="40" height="40" fill="#5a3a1e"/>
</svg>